<?xml version="1.0" encoding="UTF-8"?>
<svg width="20px" height="20px" viewBox="0 0 20 20" version="1.1" xmlns="http://www.w3.org/2000/svg" xmlns:xlink="http://www.w3.org/1999/xlink">
    <title>编组 41</title>
    <g id="页面-1" stroke="none" stroke-width="1" fill="none" fill-rule="evenodd">
        <g id="图标设计" transform="translate(-774.000000, -2904.000000)">
            <g id="编组-41" transform="translate(774.000000, 2904.000000)">
                <g id="钥匙1_key-one-2备份" transform="translate(3.333333, 3.333327)" fill="#FFFFFF" fill-rule="nonzero">
                    <path d="M11.1111966,0.169845504 C11.3581478,0.390801883 11.4018086,0.75428019 11.2290966,1.0247968 L11.1634942,1.11120295 L10.645,1.69 L12.7869674,3.67814405 C13.0567745,3.92867923 13.0723975,4.3505 12.8218623,4.62030711 C12.5963807,4.86313351 12.2321577,4.90007078 11.9648785,4.72238982 L11.8796993,4.65520204 L9.756,2.683 L8.925,3.612 L10.6188534,5.17680408 C10.8894006,5.42653992 10.9062715,5.84831262 10.6565356,6.11885978 C10.4317734,6.36235222 10.0676613,6.4003669 9.79985758,6.22347749 L9.71447993,6.15654201 L8.035,4.607 L5.80695814,7.09895643 C6.34128097,7.69012059 6.66666667,8.4737312 6.66666667,9.33333971 C6.66666667,11.1742889 5.1742825,12.666673 3.33333333,12.666673 C1.49238417,12.666673 0,11.1742889 0,9.33333971 C0,7.49239055 1.49238417,6.00000638 3.33333333,6.00000638 C3.83098346,6.00000638 4.30316245,6.1090613 4.72727571,6.30457657 L10.1698391,0.22214314 C10.4153462,-0.052247135 10.8368063,-0.0756615842 11.1111966,0.169845504 Z M3.33333333,7.33333971 C2.22876383,7.33333971 1.33333333,8.22877021 1.33333333,9.33333971 C1.33333333,10.4379092 2.22876383,11.3333397 3.33333333,11.3333397 C4.43790283,11.3333397 5.33333333,10.4379092 5.33333333,9.33333971 C5.33333333,8.22877021 4.43790283,7.33333971 3.33333333,7.33333971 Z" id="形状结合"></path>
                </g>
                <rect id="矩形" fill="#D8D8D8" opacity="0" x="0" y="0" width="20" height="20"></rect>
            </g>
        </g>
    </g>
</svg>